<?xml version="1.0" standalone="no"?>
<!DOCTYPE svg PUBLIC "-//W3C//DTD SVG 20010904//EN"
 "http://www.w3.org/TR/2001/REC-SVG-20010904/DTD/svg10.dtd">
<svg version="1.0" xmlns="http://www.w3.org/2000/svg"
 width="400.000000pt" height="400.000000pt" viewBox="0 0 400.000000 400.000000"
 preserveAspectRatio="xMidYMid meet">

<g transform="translate(0.000000,400.000000) scale(0.100000,-0.100000)"
fill="#000000" stroke="none">
<path d="M0 2002 l0 -2002 1868 0 c1027 0 1925 3 1995 7 l128 6 -2 121 c-1 67
-5 137 -8 156 -5 30 -7 26 -12 -30 l-6 -65 -1 83 c-2 97 -22 106 -22 10 0 -93
-9 -65 -11 35 -1 53 -5 84 -11 80 -6 -3 -14 1 -19 8 -4 7 -11 10 -15 6 -4 -4
-2 -13 4 -19 15 -15 16 -38 2 -38 -5 0 -10 7 -10 15 0 9 -9 25 -20 37 -11 12
-20 29 -20 37 0 22 -47 74 -59 67 -5 -4 -17 4 -25 16 -12 17 -13 24 -4 30 9 5
-12 31 -63 80 -50 47 -88 95 -109 136 -18 34 -39 62 -47 62 -10 0 -14 -6 -10
-20 6 -25 -11 -27 -20 -2 -4 9 -11 20 -17 25 -8 5 -7 9 1 15 8 5 3 17 -18 41
-16 19 -29 36 -30 40 -6 49 -50 101 -86 101 -26 0 -62 61 -56 95 3 16 2 17 -6
5 -8 -11 -11 -12 -11 -2 0 7 -4 11 -9 7 -5 -3 -12 -1 -16 5 -3 5 -1 10 5 10 7
0 6 5 -2 16 -34 41 -50 54 -58 49 -6 -4 -10 -2 -10 4 0 15 -42 51 -52 45 -4
-3 -8 0 -8 6 0 6 -5 8 -10 5 -6 -3 -13 1 -17 10 -3 10 0 21 7 25 9 5 1 19 -28
49 -22 23 -43 48 -46 57 -3 8 -10 13 -15 9 -5 -3 -13 5 -17 17 -7 23 -28 48
-39 48 -3 0 -3 -5 0 -10 14 -22 -14 -8 -29 15 -22 34 -20 41 7 19 l22 -19 -19
22 c-10 12 -21 22 -25 21 -18 -2 -24 3 -13 11 9 6 -3 24 -46 68 -33 33 -65 76
-73 96 -7 20 -18 37 -24 37 -6 0 -19 9 -28 21 -18 20 -19 20 -40 2 -16 -14
-19 -14 -9 -1 8 10 9 19 3 22 -5 3 -19 -6 -31 -21 -12 -16 -18 -21 -14 -13 5
8 -10 1 -31 -16 -96 -75 -328 -204 -448 -249 -39 -15 -50 -16 -57 -6 -8 14
-32 159 -52 311 -17 134 -17 651 0 710 7 25 16 54 19 65 5 18 4 18 -11 6 -9
-8 -15 -20 -12 -27 3 -8 0 -11 -9 -8 -11 4 -9 12 6 39 19 31 19 35 4 58 -10
16 -14 36 -10 53 l5 29 -11 -28 c-9 -22 -8 -33 5 -51 18 -28 9 -44 -11 -18
-12 15 -12 14 -4 -9 5 -14 6 -32 1 -39 -6 -10 -9 -7 -12 11 -6 36 -27 -97 -38
-245 -20 -259 -5 -630 36 -867 l6 -36 -59 -16 c-171 -48 -489 -65 -632 -33
-230 51 -340 211 -410 596 -25 137 -26 180 -5 318 29 200 113 426 221 602 26
41 50 77 53 80 18 15 48 68 42 75 -4 5 -2 5 4 2 15 -9 38 19 28 34 -4 8 -3 9
4 5 13 -8 99 82 94 98 -2 6 0 8 3 4 11 -11 47 11 39 24 -4 6 -3 8 3 5 6 -4 17
1 24 10 12 14 12 16 -1 8 -9 -5 -12 -4 -7 1 5 5 16 9 25 9 9 0 17 7 17 16 0 9
11 27 25 39 18 16 14 15 -12 -4 -43 -30 -48 -31 -48 -10 0 8 4 13 9 10 5 -3
14 0 20 8 9 10 8 15 -3 19 -11 4 -13 1 -9 -10 5 -13 3 -14 -17 -3 -18 10 -20
14 -9 21 11 7 10 9 -3 9 -10 0 -18 5 -18 11 0 11 -25 39 -35 39 -3 0 -3 -4 0
-10 14 -22 -14 -8 -29 15 -22 34 -20 41 6 19 l23 -19 -19 22 c-10 12 -21 22
-25 21 -18 -2 -24 3 -12 11 11 7 10 12 -6 28 -11 11 -28 18 -38 17 -21 -3 -49
27 -33 37 6 4 4 12 -5 21 -8 8 -29 42 -47 76 -18 34 -38 62 -46 62 -8 0 -14 5
-14 10 0 6 -8 10 -17 10 -17 -1 -17 -1 0 -14 18 -14 22 -26 8 -26 -13 0 -61
48 -61 61 0 8 5 7 18 -2 14 -11 13 -10 -2 9 -21 24 -32 29 -20 10 5 -9 2 -8
-10 1 -13 11 -14 16 -4 22 10 6 8 12 -7 23 -15 12 -16 16 -5 16 8 1 -1 9 -20
20 -23 13 -29 19 -17 20 34 0 6 20 -29 20 -19 0 -34 5 -34 10 0 6 5 10 12 10
18 0 -22 38 -46 43 -11 2 -1 6 24 7 110 7 -104 18 -497 26 l-413 7 0 -2001z
m1404 1327 c-3 -5 -10 -7 -15 -3 -5 3 -7 10 -3 15 3 5 10 7 15 3 5 -3 7 -10 3
-15z m613 -821 c-3 -7 -5 -2 -5 12 0 14 2 19 5 13 2 -7 2 -19 0 -25z m30 0
c-3 -8 -6 -5 -6 6 -1 11 2 17 5 13 3 -3 4 -12 1 -19z m-1669 -10 c28 -28 7
-78 -33 -78 -27 0 -45 18 -45 45 0 27 18 45 45 45 12 0 26 -5 33 -12z m2345
-732 c4 -10 1 -13 -8 -9 -8 3 -12 9 -9 14 7 12 11 11 17 -5z m-88 -46 c0 -7
-6 -14 -13 -16 -7 -1 -8 0 -2 3 16 8 11 26 -6 19 -9 -3 -12 -2 -9 5 9 13 30 6
30 -11z m243 -144 c3 -15 1 -16 -17 -6 -12 6 -19 16 -15 21 9 15 28 5 32 -15z
m-262 -12 c21 -15 43 -33 47 -40 5 -8 14 -11 20 -8 7 4 9 4 5 -1 -4 -4 15 -39
41 -79 177 -260 308 -686 236 -766 -55 -61 -244 -109 -565 -142 -195 -20 -880
-17 -1040 5 -203 27 -329 67 -352 111 -6 11 -11 47 -10 78 l2 57 -38 7 c-82
14 -115 64 -115 174 0 130 58 251 138 290 50 24 76 22 161 -12 l52 -21 33 25
c78 59 92 62 252 59 81 -1 191 3 245 9 224 26 501 117 734 241 40 21 82 38 94
39 12 0 39 -12 60 -26z m-1956 1 c0 -8 -7 -15 -15 -15 -8 0 -15 7 -15 15 0 8
7 15 15 15 8 0 15 -7 15 -15z m2577 -382 c-9 -8 -48 8 -42 18 4 5 14 5 26 -2
12 -6 18 -13 16 -16z m163 -188 c5 -14 14 -25 20 -25 6 0 8 -5 5 -10 -4 -7
-15 -2 -29 12 -12 13 -31 28 -42 35 -18 11 -17 12 9 12 20 1 30 -5 37 -24z
m-1985 -645 c-5 -8 -11 -8 -17 -2 -6 6 -7 16 -3 22 5 8 11 8 17 2 6 -6 7 -16
3 -22z m775 -44 c6 -8 10 -25 8 -38 -2 -18 -9 -23 -33 -23 -24 0 -31 5 -33 24
-3 15 3 30 14 38 23 17 29 16 44 -1z"/>
<path d="M987 1191 c-85 -75 -106 -292 -33 -343 22 -16 135 -8 190 13 62 23
67 32 70 123 1 33 8 76 16 93 13 31 13 34 -13 61 -35 36 -100 69 -153 78 -36
5 -45 3 -77 -25z"/>
<path d="M1342 1130 c-48 -29 -72 -75 -72 -138 0 -98 58 -162 146 -162 119 0
192 129 136 240 -37 75 -138 104 -210 60z"/>
<path d="M1750 1136 c-56 -16 -80 -28 -104 -55 -17 -19 -18 -25 -6 -67 12 -41
11 -53 -5 -101 l-19 -55 34 -28 c41 -34 113 -60 163 -60 81 0 134 105 125 249
-5 68 -8 77 -37 103 -35 31 -74 35 -151 14z"/>
<path d="M1537 3349 c7 -7 15 -10 18 -7 3 3 -2 9 -12 12 -14 6 -15 5 -6 -5z"/>
<path d="M1496 3315 c-11 -8 -15 -15 -10 -15 6 0 19 7 30 15 10 8 15 14 9 14
-5 0 -19 -6 -29 -14z"/>
<path d="M1430 2698 c-54 -37 -74 -120 -44 -184 18 -37 69 -74 104 -74 29 0
70 25 94 58 38 50 27 183 -15 174 -8 -2 -11 0 -6 4 4 4 0 16 -10 26 -23 25
-82 23 -123 -4z"/>
<path d="M2082 2657 c-6 -7 -7 -19 -3 -26 6 -9 10 -5 13 13 6 30 5 31 -10 13z"/>
<path d="M2251 2389 c-13 -11 -21 -22 -19 -25 3 -3 18 6 33 20 33 30 21 35
-14 5z"/>
<path d="M2305 2400 c-3 -6 1 -7 9 -4 18 7 21 14 7 14 -6 0 -13 -4 -16 -10z"/>
<path d="M2363 2390 c14 -11 28 -20 32 -20 4 0 -4 9 -18 20 -14 11 -28 20 -32
20 -4 0 4 -9 18 -20z"/>
<path d="M2304 2345 c-12 -13 -20 -26 -17 -29 3 -3 -6 0 -20 7 -17 8 -22 14
-14 19 7 4 10 8 7 9 -3 0 -13 2 -22 4 -9 2 -22 -2 -27 -9 -14 -17 -19 -101 -5
-99 6 1 11 -4 11 -12 0 -8 -5 -11 -10 -8 -5 3 -8 0 -5 -8 3 -8 10 -14 16 -14
5 0 14 -4 19 -9 5 -5 3 -6 -4 -2 -27 15 -12 -14 18 -35 37 -26 101 -22 133 10
11 12 15 21 9 21 -7 0 -17 -8 -22 -17 -10 -17 -10 -17 -11 -1 0 18 17 32 40
33 23 0 18 29 -5 32 -16 1 -16 1 -2 -3 9 -3 17 -9 17 -14 0 -5 -7 -7 -15 -3
-20 7 -55 -24 -56 -51 -1 -18 -2 -18 -8 4 -5 18 -2 29 13 41 20 17 15 39 -10
39 -17 0 -19 30 -1 31 6 0 2 5 -10 11 -24 11 -33 44 -10 35 7 -3 13 5 13 19 1
13 1 24 0 23 0 -1 -11 -12 -22 -24z m-62 -62 c-3 -16 -7 -22 -10 -15 -4 13 4
42 11 42 2 0 2 -12 -1 -27z m96 -57 c-7 -8 -15 -12 -17 -11 -5 6 10 25 20 25
5 0 4 -6 -3 -14z"/>
<path d="M2340 2340 c0 -5 5 -10 11 -10 5 0 7 5 4 10 -3 6 -8 10 -11 10 -2 0
-4 -4 -4 -10z"/>
<path d="M2422 2270 c0 -14 2 -19 5 -12 2 6 2 18 0 25 -3 6 -5 1 -5 -13z"/>
<path d="M2825 1930 c-2 -3 5 -6 15 -7 11 -1 22 2 24 5 3 4 -4 8 -15 8 -11 0
-22 -3 -24 -6z"/>
<path d="M2755 1869 c-4 -5 2 -6 11 -2 12 4 15 3 10 -5 -5 -8 -2 -10 8 -6 9 3
16 9 16 13 0 10 -39 11 -45 0z"/>
<path d="M1122 1850 c-34 -14 -46 -49 -33 -96 38 -140 232 -274 397 -274 104
0 117 52 47 179 -65 114 -125 158 -261 186 -76 17 -117 18 -150 5z"/>
<path d="M2711 1816 c-10 -12 -9 -14 5 -12 10 2 20 8 22 14 5 17 -13 15 -27
-2z"/>
<path d="M3045 1669 c-4 -6 -5 -12 -2 -15 2 -3 7 2 10 11 7 17 1 20 -8 4z"/>
<path d="M3290 1190 c-9 -6 -10 -10 -3 -10 6 0 15 5 18 10 8 12 4 12 -15 0z"/>
<path d="M3424 1189 c-3 -6 -2 -15 3 -20 5 -5 9 -1 9 11 0 23 -2 24 -12 9z"/>
<path d="M3360 1169 c0 -5 5 -7 10 -4 6 3 10 8 10 11 0 2 -4 4 -10 4 -5 0 -10
-5 -10 -11z"/>
<path d="M3413 1142 c1 -14 5 -18 11 -12 7 7 6 14 -1 21 -9 9 -12 7 -10 -9z"/>
</g>
</svg>
